<svg id="Camada_1" data-name="Camada 1" xmlns="http://www.w3.org/2000/svg" viewBox="0 0 103.51 23.24"><path d="M0,0H9.14a26.44,26.44,0,0,1,4,.23,5.78,5.78,0,0,1,4.14,2.85A5.27,5.27,0,0,1,18,5.75a5.28,5.28,0,0,1-.87,2.95,5.26,5.26,0,0,1-2.34,2A6,6,0,0,1,18,12.79a5.48,5.48,0,0,1,1.12,3.44,6.85,6.85,0,0,1-.72,3,6.17,6.17,0,0,1-2,2.35,6.59,6.59,0,0,1-3.1,1.09c-.77.08-2.63.13-5.57.15H0ZM4.62,3.81V9.09h3c1.8,0,2.92,0,3.35-.08a3.05,3.05,0,0,0,1.87-.81,2.44,2.44,0,0,0,.68-1.79A2.49,2.49,0,0,0,13,4.69a2.65,2.65,0,0,0-1.74-.81c-.45,0-1.77-.07-3.94-.07Zm0,9.09V19H8.89a21.55,21.55,0,0,0,3.17-.14A2.7,2.7,0,0,0,14.38,16a3,3,0,0,0-.5-1.75,2.74,2.74,0,0,0-1.44-1,15.63,15.63,0,0,0-4.1-.33Z"/><path d="M32.61,17.59l4.37.73A7.11,7.11,0,0,1,34.32,22a7.8,7.8,0,0,1-4.55,1.26q-4.32,0-6.39-2.83a9.47,9.47,0,0,1-1.64-5.7,9.15,9.15,0,0,1,2.15-6.45,7.07,7.07,0,0,1,5.44-2.33,7.36,7.36,0,0,1,5.84,2.44c1.42,1.62,2.1,4.12,2,7.47h-11a4.47,4.47,0,0,0,1.06,3A3.33,3.33,0,0,0,29.82,20a2.72,2.72,0,0,0,1.73-.56A3.45,3.45,0,0,0,32.61,17.59Zm.25-4.43a4.22,4.22,0,0,0-1-2.89,3.17,3.17,0,0,0-4.65.05,4.08,4.08,0,0,0-.92,2.84Z"/><path d="M44.06,11.35l-4-.71a6.24,6.24,0,0,1,2.31-3.56,8.42,8.42,0,0,1,4.86-1.15,10.55,10.55,0,0,1,4.37.69,4.33,4.33,0,0,1,2,1.76,9,9,0,0,1,.59,3.92l0,5.12a17.75,17.75,0,0,0,.21,3.22,9.17,9.17,0,0,0,.79,2.22H50.84q-.17-.43-.42-1.29c-.07-.26-.13-.43-.16-.52a7.72,7.72,0,0,1-2.4,1.64,6.76,6.76,0,0,1-2.73.55,5.67,5.67,0,0,1-4-1.39,4.63,4.63,0,0,1-1.47-3.51,4.66,4.66,0,0,1,.67-2.5,4.35,4.35,0,0,1,1.88-1.69,14.61,14.61,0,0,1,3.48-1,23.83,23.83,0,0,0,4.26-1.07v-.44a2.29,2.29,0,0,0-.62-1.8,3.74,3.74,0,0,0-2.36-.54,3.08,3.08,0,0,0-1.82.46A3.17,3.17,0,0,0,44.06,11.35Zm5.86,3.56a26.38,26.38,0,0,1-2.67.67,8,8,0,0,0-2.38.76A1.84,1.84,0,0,0,44,17.89a2.15,2.15,0,0,0,.69,1.59,2.37,2.37,0,0,0,1.74.67,3.77,3.77,0,0,0,2.26-.78,2.8,2.8,0,0,0,1-1.45,9,9,0,0,0,.17-2.14Z"/><path d="M66.14,6.3V9.79h-3v6.68a16.52,16.52,0,0,0,.08,2.36,1,1,0,0,0,.39.56,1.27,1.27,0,0,0,.74.21,5.65,5.65,0,0,0,1.76-.42l.38,3.4a8.64,8.64,0,0,1-3.46.66,5.59,5.59,0,0,1-2.14-.4,3.22,3.22,0,0,1-1.4-1,4.08,4.08,0,0,1-.61-1.71A20.37,20.37,0,0,1,58.75,17V9.79h-2V6.3h2V3L63.15.45V6.3Z"/><path d="M73.38,22.86H69V6.3h4.07V8.66a7.08,7.08,0,0,1,1.88-2.2,3.42,3.42,0,0,1,1.9-.53,5.53,5.53,0,0,1,2.88.82l-1.35,3.82a3.92,3.92,0,0,0-2.06-.71,2.45,2.45,0,0,0-1.56.5,3.49,3.49,0,0,0-1,1.84,26.43,26.43,0,0,0-.36,5.55Z"/><path d="M81.61,4.05V0H86V4.05Zm0,18.81V6.3H86V22.86Z"/><path d="M88.72,22.86V19.45l6.21-7.13c1-1.16,1.77-2,2.26-2.48q-.76,0-2,.06l-5.85,0V6.3H103V9.4l-6.33,7.3-2.23,2.42c1.22-.07,2-.11,2.26-.11h6.79v3.85Z"/></svg>